<svg xmlns="http://www.w3.org/2000/svg" width="1160" height="470" viewBox="0 0 1160 470">
<rect width="100%" height="100%" fill="white"/>
<text x="580" y="28" text-anchor="middle" font-size="20" font-family="Arial" font-weight="700">Human Annotation Categories</text>
<line x1="70" y1="360" x2="1090" y2="360" stroke="#444"/>
<line x1="70" y1="60" x2="70" y2="360" stroke="#444"/>
<line x1="70" y1="360.0" x2="1090" y2="360.0" stroke="#ddd"/>
<text x="62" y="364.0" text-anchor="end" font-size="10" font-family="Arial">0%</text>
<line x1="70" y1="285.0" x2="1090" y2="285.0" stroke="#ddd"/>
<text x="62" y="289.0" text-anchor="end" font-size="10" font-family="Arial">25%</text>
<line x1="70" y1="210.0" x2="1090" y2="210.0" stroke="#ddd"/>
<text x="62" y="214.0" text-anchor="end" font-size="10" font-family="Arial">50%</text>
<line x1="70" y1="135.0" x2="1090" y2="135.0" stroke="#ddd"/>
<text x="62" y="139.0" text-anchor="end" font-size="10" font-family="Arial">75%</text>
<line x1="70" y1="60.0" x2="1090" y2="60.0" stroke="#ddd"/>
<text x="62" y="64.0" text-anchor="end" font-size="10" font-family="Arial">100%</text>
<rect x="98.7" y="258.0" width="70.1" height="102.0" fill="#70a37f"/>
<rect x="98.7" y="60.0" width="70.1" height="198.0" fill="#d28c45"/>
<rect x="98.7" y="60.0" width="70.1" height="0.0" fill="#6a8dcc"/>
<text x="133.8" y="378" text-anchor="middle" font-size="10" font-family="Arial">NQ-like</text>
<text x="133.8" y="392" text-anchor="middle" font-size="10" font-family="Arial">BGE</text>
<rect x="226.2" y="293.4" width="70.1" height="66.6" fill="#70a37f"/>
<rect x="226.2" y="183.3" width="70.1" height="110.1" fill="#d28c45"/>
<rect x="226.2" y="60.0" width="70.1" height="123.3" fill="#6a8dcc"/>
<text x="261.2" y="378" text-anchor="middle" font-size="10" font-family="Arial">NQ-like</text>
<text x="261.2" y="392" text-anchor="middle" font-size="10" font-family="Arial">MiniLM</text>
<rect x="353.7" y="264.0" width="70.1" height="96.0" fill="#70a37f"/>
<rect x="353.7" y="60.0" width="70.1" height="204.0" fill="#d28c45"/>
<rect x="353.7" y="60.0" width="70.1" height="0.0" fill="#6a8dcc"/>
<text x="388.8" y="378" text-anchor="middle" font-size="10" font-family="Arial">SciQ</text>
<text x="388.8" y="392" text-anchor="middle" font-size="10" font-family="Arial">BGE</text>
<rect x="481.2" y="294.6" width="70.1" height="65.4" fill="#70a37f"/>
<rect x="481.2" y="177.3" width="70.1" height="117.3" fill="#d28c45"/>
<rect x="481.2" y="60.0" width="70.1" height="117.3" fill="#6a8dcc"/>
<text x="516.2" y="378" text-anchor="middle" font-size="10" font-family="Arial">SciQ</text>
<text x="516.2" y="392" text-anchor="middle" font-size="10" font-family="Arial">MiniLM</text>
<rect x="608.7" y="204.0" width="70.1" height="156.0" fill="#70a37f"/>
<rect x="608.7" y="60.0" width="70.1" height="144.0" fill="#d28c45"/>
<rect x="608.7" y="60.0" width="70.1" height="0.0" fill="#6a8dcc"/>
<text x="643.8" y="378" text-anchor="middle" font-size="10" font-family="Arial">TruthfulQA</text>
<text x="643.8" y="392" text-anchor="middle" font-size="10" font-family="Arial">BGE</text>
<rect x="736.2" y="240.0" width="70.1" height="120.0" fill="#70a37f"/>
<rect x="736.2" y="80.1" width="70.1" height="159.9" fill="#d28c45"/>
<rect x="736.2" y="60.0" width="70.1" height="20.1" fill="#6a8dcc"/>
<text x="771.2" y="378" text-anchor="middle" font-size="10" font-family="Arial">TruthfulQA</text>
<text x="771.2" y="392" text-anchor="middle" font-size="10" font-family="Arial">MiniLM</text>
<rect x="863.7" y="234.0" width="70.1" height="126.0" fill="#70a37f"/>
<rect x="863.7" y="60.0" width="70.1" height="174.0" fill="#d28c45"/>
<rect x="863.7" y="60.0" width="70.1" height="0.0" fill="#6a8dcc"/>
<text x="898.8" y="378" text-anchor="middle" font-size="10" font-family="Arial">Wiki</text>
<text x="898.8" y="392" text-anchor="middle" font-size="10" font-family="Arial">BGE</text>
<rect x="991.2" y="275.4" width="70.1" height="84.6" fill="#70a37f"/>
<rect x="991.2" y="173.1" width="70.1" height="102.3" fill="#d28c45"/>
<rect x="991.2" y="60.3" width="70.1" height="112.8" fill="#6a8dcc"/>
<text x="1026.2" y="378" text-anchor="middle" font-size="10" font-family="Arial">Wiki</text>
<text x="1026.2" y="392" text-anchor="middle" font-size="10" font-family="Arial">MiniLM</text>
<rect x="275" y="430" width="12" height="12" fill="#70a37f"/><text x="293" y="440" font-size="11" font-family="Arial">Automatic label artifact</text>
<rect x="490" y="430" width="12" height="12" fill="#d28c45"/><text x="508" y="440" font-size="11" font-family="Arial">Semantic similarity limitation</text>
<rect x="705" y="430" width="12" height="12" fill="#6a8dcc"/><text x="723" y="440" font-size="11" font-family="Arial">Low-sim false negative</text>
</svg>